<svg xmlns="http://www.w3.org/2000/svg" width="138.741" height="75.842" viewBox="0 0 138.741 75.842">
  <defs>
    <style>
      .cls-1 {
        fill: #f4e827;
      }

      .cls-1, .cls-2 {
        fill-rule: evenodd;
      }

      .cls-3 {
        fill: #dc0816;
      }

      .cls-4 {
        fill: none;
        stroke: #fff;
        stroke-linecap: round;
        stroke-linejoin: round;
        stroke-width: 2.86px;
      }
    </style>
  </defs>
  <g id="グループ_189" data-name="グループ 189" transform="translate(-1058 -632)">
    <g id="グループ_121" data-name="グループ 121" transform="translate(1058 632)">
      <g id="グループ_120" data-name="グループ 120">
        <path id="パス_35" data-name="パス 35" class="cls-1" d="M90.556,17.628A14.828,14.828,0,1,1,75.728,2.8,14.809,14.809,0,0,1,90.556,17.628Z" transform="translate(-23.89 -1.098)"/>
        <path id="パス_36" data-name="パス 36" class="cls-2" d="M90.9,17A15.8,15.8,0,1,1,75.1,1.2,15.769,15.769,0,0,1,90.9,17ZM75.1,3.084A13.886,13.886,0,1,0,89.017,16.94,13.915,13.915,0,0,0,75.1,3.084Z" transform="translate(-23.263 -0.471)"/>
        <path id="パス_37" data-name="パス 37" class="cls-2" d="M0,.6H11.607V7.649H4.8v5.469h5.713v6.624H4.8V31.836H0Z" transform="translate(0 -0.235)"/>
        <path id="パス_38" data-name="パス 38" class="cls-2" d="M23.061.561h6.381L32.116,19.7,34.79.5h6.381V31.8H37.038V11.135L33.878,31.8h-3.95L26.889,10.953V31.8H23V.561Z" transform="translate(-9.023 -0.196)"/>
        <path id="パス_39" data-name="パス 39" class="cls-2" d="M63.8,26.2V24.86a3.369,3.369,0,0,1,3.282-3.16,3.109,3.109,0,0,1,3.342,3.039c0,1.215.547,1.823,1.459,1.823s1.58-.365,1.58-1.762a3.439,3.439,0,0,1,3.4-3.1,3.275,3.275,0,0,1,3.282,3.1c0,1.459.851,1.762,1.519,1.762a1.471,1.471,0,0,0,1.58-1.641A3.282,3.282,0,0,1,86.468,21.7a3.5,3.5,0,0,1,3.4,3.282v1.276H88.048V25.1a1.6,1.6,0,0,0-1.58-1.519,1.344,1.344,0,0,0-1.459,1.337,3.345,3.345,0,1,1-6.685,0c0-.972-1.033-1.337-1.459-1.337-.486,0-1.519.365-1.519,1.276a3.318,3.318,0,0,1-3.4,3.586c-1.215,0-3.282-.608-3.282-3.646,0-.547-.851-1.155-1.519-1.155a1.559,1.559,0,0,0-1.519,1.337v1.276H63.8Z" transform="translate(-25.028 -8.513)"/>
        <path id="パス_40" data-name="パス 40" class="cls-2" d="M119.3.6h4.922V31.9H119.3Z" transform="translate(-46.8 -0.235)"/>
        <path id="パス_41" data-name="パス 41" class="cls-2" d="M132.479.6h5.591l-5.287,15.193L138.8,31.9h-5.834l-5.166-16.1Z" transform="translate(-50.134 -0.235)"/>
        <path id="パス_42" data-name="パス 42" class="cls-2" d="M180.4.6h11.607V7.649H185.2v5.469h5.713v6.624H185.2V31.836h-4.8Z" transform="translate(-70.768 -0.235)"/>
        <path id="パス_43" data-name="パス 43" class="cls-2" d="M203.7.6h4.679V19.2c0,4.862,2.066,6.32,2.735,6.32s2.735-.729,2.735-6.259V.6h4.8V22.052c0,7.779-4.254,10.635-7.475,10.635s-7.475-3.525-7.475-10.27C203.7,15.611,203.7.6,203.7.6Z" transform="translate(-79.909 -0.235)"/>
        <path id="パス_44" data-name="パス 44" class="cls-2" d="M164.918,16.165c0,8.933-4.193,16.165-9.359,16.165S146.2,25.1,146.2,16.165,150.393,0,155.559,0,164.918,7.232,164.918,16.165Zm-9.359-9.42c-2.431,0-4.376,4.254-4.376,9.48s1.945,9.48,4.376,9.48,4.376-4.254,4.376-9.48C159.934,10.939,157.929,6.746,155.559,6.746Z" transform="translate(-57.352)"/>
      </g>
    </g>
    <g id="グループ_126" data-name="グループ 126" transform="translate(1060.431 671.745)">
      <g id="グループ_122" data-name="グループ 122" transform="translate(0 0)">
        <path id="パス_45" data-name="パス 45" class="cls-3" d="M235.3,59.309l17.334-25.373H240.7l1.256-7.536h25L245.474,59.309Z" transform="translate(-235.3 -25.646)"/>
        <path id="パス_46" data-name="パス 46" class="cls-3" d="M268.585,38.333h0a8.556,8.556,0,0,1,3.517-.879c5.652,0,7.662,5.778,6.908,10.425a14.175,14.175,0,0,1-14.319,12.058c-7.411,0-10.677-5.4-9.546-11.933.879-5.15,5.527-11.682,8.793-16.329l3.768-5.276H277.88ZM269.841,48c.251-1.633.251-4.145-2.01-4.145s-3.14,2.763-3.391,4.271c-.251,1.633-.5,4.647,1.884,4.647C268.836,52.778,269.589,49.763,269.841,48Z" transform="translate(-230.274 -25.646)"/>
        <path id="パス_47" data-name="パス 47" class="cls-3" d="M287.363,50.294c-.126,1.759.754,2.512,1.884,2.512a3.169,3.169,0,0,0,3.14-3.015c.5-2.763-1.507-3.643-3.643-3.643h-1.256l1.13-6.908h1.13c2.512,0,4.019-.754,4.4-3.391.126-1.13,0-2.889-1.507-2.889-2.01,0-2.261,2.261-2.387,2.512v.251h-9.169c1.382-6.029,6.657-9.923,13.189-9.923,5.9,0,10.174,4.019,9.295,9.672a9.452,9.452,0,0,1-5.4,6.783c3.015,1.507,4.019,4.4,3.391,7.788-1.13,6.28-7.536,9.8-13.817,9.8-6.532,0-11.053-3.894-9.8-10.3h9.295Z" transform="translate(-224.434 -25.8)"/>
        <path id="パス_48" data-name="パス 48" d="M313.329,56.646l1.633-12.435h0c-.5,1.382-.879,2.889-1.507,4.271L310.44,56.52h-4.648l.126-12.435h0c-.251,1.507-.5,2.889-.879,4.4l-1.884,8.039H297l5.778-19.72h7.16l-.126,10.551h0c.377-1.256.754-2.387,1.13-3.643l2.512-6.783h7.034l-1.256,19.72h-5.9Z" transform="translate(-219.5 -22.983)"/>
        <path id="パス_49" data-name="パス 49" d="M325.241,56.62l1.382-8.039H323.86l-1.382,8.039H316.7l3.391-19.72h5.778l-1.256,7.034h2.763l1.256-7.034h5.778l-3.517,19.72Z" transform="translate(-214.455 -22.958)"/>
        <path id="パス_50" data-name="パス 50" d="M329.8,55.417l6.657-9.8c-.754,0-1.382.126-2.135.126h-2.135l.754-4.145h11.933l-6.657,9.672h4.145l-.754,4.145Z" transform="translate(-211.101 -21.754)"/>
      </g>
      <g id="グループ_125" data-name="グループ 125" transform="translate(44.465 24.368)">
        <g id="グループ_123" data-name="グループ 123">
          <path id="パス_51" data-name="パス 51" class="cls-4" d="M280.646,50.274a4.773,4.773,0,1,1-4.773-4.773A4.691,4.691,0,0,1,280.646,50.274Z" transform="translate(-270.598 -45.124)"/>
          <path id="パス_52" data-name="パス 52" class="cls-4" d="M281,50.35a5.15,5.15,0,1,1-5.15-5.15A5.094,5.094,0,0,1,281,50.35Zm-5.15-4.522a4.522,4.522,0,1,0,4.522,4.522A4.5,4.5,0,0,0,275.85,45.828Z" transform="translate(-270.7 -45.2)"/>
          <path id="パス_53" data-name="パス 53" class="cls-4" d="M271.4,49.882V49.5a1.09,1.09,0,0,1,1.13-1,1.1,1.1,0,0,1,1.13,1c0,.377.126.628.5.628.251,0,.5-.126.5-.628a1.107,1.107,0,0,1,1.13-1,.991.991,0,0,1,1,1c0,.5.251.628.5.628a.46.46,0,0,0,.5-.5.991.991,0,0,1,1-1,1.208,1.208,0,0,1,1.13,1v.377h-.628V49.63a.54.54,0,0,0-.5-.5c-.251,0-.377,0-.377.251a1.13,1.13,0,1,1-2.261,0c0-.251-.377-.377-.5-.377s-.5.126-.5.377a1.031,1.031,0,0,1-1.13,1.13,1.019,1.019,0,0,1-1-1.13c0-.251-.251-.377-.5-.377a.561.561,0,0,0-.5.377v.377H271.4Z" transform="translate(-270.521 -44.355)"/>
        </g>
        <g id="グループ_124" data-name="グループ 124">
          <path id="パス_54" data-name="パス 54" class="cls-1" d="M280.646,50.274a4.773,4.773,0,1,1-4.773-4.773A4.691,4.691,0,0,1,280.646,50.274Z" transform="translate(-270.598 -45.124)"/>
          <path id="パス_55" data-name="パス 55" class="cls-2" d="M281,50.35a5.15,5.15,0,1,1-5.15-5.15A5.094,5.094,0,0,1,281,50.35Zm-5.15-4.522a4.522,4.522,0,1,0,4.522,4.522A4.5,4.5,0,0,0,275.85,45.828Z" transform="translate(-270.7 -45.2)"/>
          <path id="パス_56" data-name="パス 56" class="cls-2" d="M271.4,49.882V49.5a1.09,1.09,0,0,1,1.13-1,1.1,1.1,0,0,1,1.13,1c0,.377.126.628.5.628.251,0,.5-.126.5-.628a1.107,1.107,0,0,1,1.13-1,.991.991,0,0,1,1,1c0,.5.251.628.5.628a.46.46,0,0,0,.5-.5.991.991,0,0,1,1-1,1.208,1.208,0,0,1,1.13,1v.377h-.628V49.63a.54.54,0,0,0-.5-.5c-.251,0-.377,0-.377.251a1.13,1.13,0,1,1-2.261,0c0-.251-.377-.377-.5-.377s-.5.126-.5.377a1.031,1.031,0,0,1-1.13,1.13,1.019,1.019,0,0,1-1-1.13c0-.251-.251-.377-.5-.377a.561.561,0,0,0-.5.377v.377H271.4Z" transform="translate(-270.521 -44.355)"/>
        </g>
      </g>
    </g>
  </g>
</svg>
