<svg id="fmkofu-logo" xmlns="http://www.w3.org/2000/svg" width="341.8" height="54.83" viewBox="0 0 341.8 54.83">
  <defs>
    <style>
      .cls-1 {
        fill: #f4e827;
      }

      .cls-1, .cls-2 {
        fill-rule: evenodd;
      }

      .cls-3 {
        fill: #dc0816;
      }

      .cls-4 {
        fill: none;
        stroke: #fff;
        stroke-linecap: round;
        stroke-linejoin: round;
        stroke-width: 2.86px;
      }
    </style>
  </defs>
  <g id="グループ_121" data-name="グループ 121">
    <g id="グループ_120" data-name="グループ 120">
      <path id="パス_35" data-name="パス 35" class="cls-1" d="M109.7,27.2A24.4,24.4,0,1,1,85.3,2.8,24.369,24.369,0,0,1,109.7,27.2Z"/>
      <path id="パス_36" data-name="パス 36" class="cls-2" d="M111.3,27.2a26,26,0,1,1-26-26A25.948,25.948,0,0,1,111.3,27.2ZM85.3,4.3a22.85,22.85,0,1,0,22.9,22.8A22.9,22.9,0,0,0,85.3,4.3Z"/>
      <path id="パス_37" data-name="パス 37" class="cls-2" d="M0,.6H19.1V12.2H7.9v9h9.4V32.1H7.9V52H0Z"/>
      <path id="パス_38" data-name="パス 38" class="cls-2" d="M23.1.6H33.6L38,32.1,42.4.5H52.9V52H46.1V18L40.9,52H34.4l-5-34.3V52H23V.6Z"/>
      <path id="パス_39" data-name="パス 39" class="cls-2" d="M63.8,29.1V26.9a5.543,5.543,0,0,1,5.4-5.2,5.117,5.117,0,0,1,5.5,5c0,2,.9,3,2.4,3s2.6-.6,2.6-2.9a5.659,5.659,0,0,1,5.6-5.1,5.388,5.388,0,0,1,5.4,5.1c0,2.4,1.4,2.9,2.5,2.9A2.42,2.42,0,0,0,95.8,27a5.4,5.4,0,0,1,5.3-5.3,5.757,5.757,0,0,1,5.6,5.4v2.1h-3V27.3a2.63,2.63,0,0,0-2.6-2.5A2.211,2.211,0,0,0,98.7,27c0,4-2.7,5.7-5.5,5.7-2.9,0-5.5-1.8-5.5-5.7,0-1.6-1.7-2.2-2.4-2.2-.8,0-2.5.6-2.5,2.1a5.46,5.46,0,0,1-5.6,5.9c-2,0-5.4-1-5.4-6,0-.9-1.4-1.9-2.5-1.9a2.565,2.565,0,0,0-2.5,2.2v2.1h-3Z"/>
      <path id="パス_40" data-name="パス 40" class="cls-2" d="M119.3.6h8.1V52.1h-8.1Z"/>
      <path id="パス_41" data-name="パス 41" class="cls-2" d="M135.5.6h9.2l-8.7,25,9.9,26.5h-9.6l-8.5-26.5Z"/>
      <path id="パス_42" data-name="パス 42" class="cls-2" d="M180.4.6h19.1V12.2H188.3v9h9.4V32.1h-9.4V52h-7.9V.6Z"/>
      <path id="パス_43" data-name="パス 43" class="cls-2" d="M203.7.6h7.7V31.2c0,8,3.4,10.4,4.5,10.4s4.5-1.2,4.5-10.3V.6h7.9V35.9c0,12.8-7,17.5-12.3,17.5s-12.3-5.8-12.3-16.9C203.7,25.3,203.7.6,203.7.6Z"/>
      <path id="パス_44" data-name="パス 44" class="cls-2" d="M177,26.6c0,14.7-6.9,26.6-15.4,26.6s-15.4-11.9-15.4-26.6S153.1,0,161.6,0,177,11.9,177,26.6ZM161.6,11.1c-4,0-7.2,7-7.2,15.6s3.2,15.6,7.2,15.6,7.2-7,7.2-15.6C168.8,18,165.5,11.1,161.6,11.1Z"/>
    </g>
  </g>
  <g id="グループ_126" data-name="グループ 126">
    <g id="グループ_122" data-name="グループ 122">
      <path id="パス_45" data-name="パス 45" class="cls-3" d="M235.3,52.6l13.8-20.2h-9.5l1-6h19.9L243.4,52.6Z"/>
      <path id="パス_46" data-name="パス 46" class="cls-3" d="M265.8,35.9h0a6.812,6.812,0,0,1,2.8-.7c4.5,0,6.1,4.6,5.5,8.3a11.285,11.285,0,0,1-11.4,9.6c-5.9,0-8.5-4.3-7.6-9.5.7-4.1,4.4-9.3,7-13l3-4.2h8.1Zm1,7.7c.2-1.3.2-3.3-1.6-3.3s-2.5,2.2-2.7,3.4c-.2,1.3-.4,3.7,1.5,3.7C266,47.4,266.6,45,266.8,43.6Z"/>
      <path id="パス_47" data-name="パス 47" class="cls-3" d="M285.4,45.3c-.1,1.4.6,2,1.5,2a2.523,2.523,0,0,0,2.5-2.4c.4-2.2-1.2-2.9-2.9-2.9h-1l.9-5.5h.9c2,0,3.2-.6,3.5-2.7.1-.9,0-2.3-1.2-2.3-1.6,0-1.8,1.8-1.9,2v.2h-7.3c1.1-4.8,5.3-7.9,10.5-7.9,4.7,0,8.1,3.2,7.4,7.7a7.525,7.525,0,0,1-4.3,5.4c2.4,1.2,3.2,3.5,2.7,6.2-.9,5-6,7.8-11,7.8-5.2,0-8.8-3.1-7.8-8.2h7.4Z"/>
      <path id="パス_48" data-name="パス 48" d="M310,52.6l1.3-9.9h0c-.4,1.1-.7,2.3-1.2,3.4l-2.4,6.4H304l.1-9.9h0c-.2,1.2-.4,2.3-.7,3.5l-1.5,6.4H297l4.6-15.7h5.7l-.1,8.4h0c.3-1,.6-1.9.9-2.9l2-5.4h5.6l-1,15.7H310Z"/>
      <path id="パス_49" data-name="パス 49" d="M323.5,52.6l1.1-6.4h-2.2l-1.1,6.4h-4.6l2.7-15.7H324l-1,5.6h2.2l1-5.6h4.6L328,52.6Z"/>
      <path id="パス_50" data-name="パス 50" d="M329.8,52.6l5.3-7.8c-.6,0-1.1.1-1.7.1h-1.7l.6-3.3h9.5l-5.3,7.7h3.3l-.6,3.3Z"/>
    </g>
    <g id="グループ_125" data-name="グループ 125">
      <g id="グループ_123" data-name="グループ 123">
        <path id="パス_51" data-name="パス 51" class="cls-4" d="M278.7,49.3a3.8,3.8,0,1,1-3.8-3.8A3.734,3.734,0,0,1,278.7,49.3Z"/>
        <path id="パス_52" data-name="パス 52" class="cls-4" d="M278.9,49.3a4.1,4.1,0,1,1-4.1-4.1A4.055,4.055,0,0,1,278.9,49.3Zm-4.1-3.6a3.6,3.6,0,1,0,3.6,3.6A3.585,3.585,0,0,0,274.8,45.7Z"/>
        <path id="パス_53" data-name="パス 53" class="cls-4" d="M271.4,49.6v-.3a.868.868,0,0,1,.9-.8.879.879,0,0,1,.9.8c0,.3.1.5.4.5.2,0,.4-.1.4-.5a.882.882,0,0,1,.9-.8.789.789,0,0,1,.8.8c0,.4.2.5.4.5a.366.366,0,0,0,.4-.4.789.789,0,0,1,.8-.8.961.961,0,0,1,.9.8v.3h-.5v-.3a.43.43,0,0,0-.4-.4c-.2,0-.3,0-.3.2a.9.9,0,1,1-1.8,0c0-.2-.3-.3-.4-.3s-.4.1-.4.3a.821.821,0,0,1-.9.9.811.811,0,0,1-.8-.9c0-.2-.2-.3-.4-.3a.446.446,0,0,0-.4.3v.3h-.5Z"/>
      </g>
      <g id="グループ_124" data-name="グループ 124">
        <path id="パス_54" data-name="パス 54" class="cls-1" d="M278.7,49.3a3.8,3.8,0,1,1-3.8-3.8A3.734,3.734,0,0,1,278.7,49.3Z"/>
        <path id="パス_55" data-name="パス 55" class="cls-2" d="M278.9,49.3a4.1,4.1,0,1,1-4.1-4.1A4.055,4.055,0,0,1,278.9,49.3Zm-4.1-3.6a3.6,3.6,0,1,0,3.6,3.6A3.585,3.585,0,0,0,274.8,45.7Z"/>
        <path id="パス_56" data-name="パス 56" class="cls-2" d="M271.4,49.6v-.3a.868.868,0,0,1,.9-.8.879.879,0,0,1,.9.8c0,.3.1.5.4.5.2,0,.4-.1.4-.5a.882.882,0,0,1,.9-.8.789.789,0,0,1,.8.8c0,.4.2.5.4.5a.366.366,0,0,0,.4-.4.789.789,0,0,1,.8-.8.961.961,0,0,1,.9.8v.3h-.5v-.3a.43.43,0,0,0-.4-.4c-.2,0-.3,0-.3.2a.9.9,0,1,1-1.8,0c0-.2-.3-.3-.4-.3s-.4.1-.4.3a.821.821,0,0,1-.9.9.811.811,0,0,1-.8-.9c0-.2-.2-.3-.4-.3a.446.446,0,0,0-.4.3v.3h-.5Z"/>
      </g>
    </g>
  </g>
</svg>
