<svg id="グループ_191" data-name="グループ 191" xmlns="http://www.w3.org/2000/svg" width="256" height="103.954" viewBox="0 0 256 103.954">
  <defs>
    <style>
      .cls-1 {
        fill: #fbc711;
      }
    </style>
  </defs>
  <path id="パス_1869" data-name="パス 1869" d="M257.19,224.96H77.5l15.693,15.693h179.69L257.19,224.96Z" transform="translate(-47.094 -136.7)"/>
  <g id="グループ_183" data-name="グループ 183" transform="translate(53.401 92.16)">
    <g id="グループ_182" data-name="グループ 182" transform="translate(18.303)">
      <path id="パス_1870" data-name="パス 1870" class="cls-1" d="M183.8,236.613v1.97a25.815,25.815,0,0,0,3.437-1.1,5.011,5.011,0,0,0,.914-.463l.416.949c-.31.122-.687.29-.989.4a36.548,36.548,0,0,1-3.774,1.185v1.922c0,.451.2.565.64.659a8.111,8.111,0,0,0,1.177.067,15.67,15.67,0,0,0,3.249-.31v1.083a27.689,27.689,0,0,1-3.3.188,10.178,10.178,0,0,1-1.546-.094c-.761-.141-1.2-.518-1.2-1.31v-5.151a5.625,5.625,0,0,0-.067-.867h1.1c-.027.255-.055.592-.055.867Zm4.971.075-.612.263a11.138,11.138,0,0,0-.753-1.3l.612-.255A13.182,13.182,0,0,1,188.775,236.687Zm1.083-.4-.612.263a8.782,8.782,0,0,0-.761-1.291l.6-.255a12.057,12.057,0,0,1,.773,1.279Z" transform="translate(-182.76 -234.961)"/>
      <path id="パス_1871" data-name="パス 1871" class="cls-1" d="M210.087,239.513l-.545.84a24.191,24.191,0,0,0-2.091-1.318l.526-.808c.592.322,1.667.981,2.111,1.291Zm.949,2.213a9.627,9.627,0,0,0,3.606-3.492l.573,1a10.795,10.795,0,0,1-6.807,4.539l-.557-.969a10.312,10.312,0,0,0,3.182-1.075Zm.471-4.292-.565.808c-.479-.349-1.487-1.008-2.064-1.338l.537-.82c.585.33,1.64,1.028,2.091,1.346Zm2.825.283-.659.282a8.244,8.244,0,0,0-.847-1.479l.639-.275a13.9,13.9,0,0,1,.867,1.467Zm1.291-.49-.659.29a9.116,9.116,0,0,0-.887-1.452l.651-.275a13.774,13.774,0,0,1,.895,1.432Z" transform="translate(-197.763 -235.441)"/>
      <path id="パス_1872" data-name="パス 1872" class="cls-1" d="M238.56,236.541v.557h1.373a2.767,2.767,0,0,0,.667-.075l.62.592c-.2.208-.443.471-.612.659a12.529,12.529,0,0,1-2.072,1.911v2.468c0,.349.027.82.047,1.11h-1.075a9.436,9.436,0,0,0,.067-1.11V240.8a15.172,15.172,0,0,1-3.052,1.232l-.573-.875a11.539,11.539,0,0,0,3.833-1.593,7.076,7.076,0,0,0,1.769-1.581h-3.692c-.337,0-.895.02-1.185.039v-.981a11.661,11.661,0,0,0,1.169.055h1.75v-.557a6.064,6.064,0,0,0-.055-.847h1.075a7.692,7.692,0,0,0-.055.847Zm.718,4.135.612-.706a22.308,22.308,0,0,1,2.268,1.357l-.62.82A16.566,16.566,0,0,0,239.278,240.677Z" transform="translate(-213.866 -235.38)"/>
      <path id="パス_1873" data-name="パス 1873" class="cls-1" d="M267.914,238.726a12.88,12.88,0,0,1-1.546,2.684,24.859,24.859,0,0,1,2.691,2.758l-.828.734a20.96,20.96,0,0,0-2.5-2.75,12.365,12.365,0,0,1-3.625,2.711l-.761-.8a10.573,10.573,0,0,0,3.868-2.758,7.752,7.752,0,0,0,1.5-2.487h-3.456c-.369,0-.875.047-1.028.055v-1.063a10.269,10.269,0,0,0,1.028.067h3.492a2.92,2.92,0,0,0,.82-.094l.612.451a3.215,3.215,0,0,0-.275.49Z" transform="translate(-230.516 -236.65)"/>
      <path id="パス_1874" data-name="パス 1874" class="cls-1" d="M293.107,238.953c.828-.5,1.762-.961,2.252-1.232a5.571,5.571,0,0,0,.753-.5l.518.855c-.243.149-.51.29-.808.443-.62.322-1.875.9-2.77,1.487-.828.545-1.357,1.138-1.357,1.828,0,.734.706,1.169,2.111,1.169a14.1,14.1,0,0,0,3.041-.337l-.008,1.075a17.783,17.783,0,0,1-2.994.228c-1.816,0-3.154-.518-3.154-2.024a3.087,3.087,0,0,1,1.6-2.448c-.432-.793-.9-1.856-1.346-2.864l.934-.384a22.473,22.473,0,0,0,1.232,2.711Z" transform="translate(-248.345 -235.72)"/>
      <path id="パス_1875" data-name="パス 1875" class="cls-1" d="M313.67,239.2a12.987,12.987,0,0,0,.4-2.421l.632.075a12.82,12.82,0,0,1-.377,2.55l-.659-.208Zm2.448-1.306a12.171,12.171,0,0,0-.479-1.318v7.015h-.8v-8.628h.8V236.5l.545-.216a11.551,11.551,0,0,1,.526,1.326l-.592.283Zm6.281.055v.651h-6.1v-.651h2.582V237.4h-2.072v-.612h2.072v-.49h-2.3v-.651h2.3v-.7h.867v.7h2.382v.651h-2.382v.49h2.138v.612h-2.138v.545H322.4Zm-.687,4.747c0,.4-.086.62-.369.745a4.031,4.031,0,0,1-1.385.133,3.221,3.221,0,0,0-.255-.753c.432.027.887.02,1.008.02s.169-.047.169-.161v-.51h-3.119v1.42h-.808v-4.528h4.755v3.633Zm-3.947-2.978v.585h3.119v-.585Zm3.119,1.82v-.585h-3.119v.585Z" transform="translate(-262.309 -234.93)"/>
      <path id="パス_1876" data-name="パス 1876" class="cls-1" d="M342.793,237.414c-.122.781-.471,1.244-1.514,1.507a1.4,1.4,0,0,0-.369-.526c.82-.18,1.1-.463,1.2-.981h-1.028v-.632h1.656v-.6h-1.318v-.612h1.318v-.573h.781v.573h1.326v.612h-1.326v.6h1.62v.632h-1.091v.51c0,.149.02.169.141.169h.33c.122,0,.149-.047.181-.451a1.64,1.64,0,0,0,.545.235c-.055.612-.235.781-.632.781H344.1c-.557,0-.679-.161-.679-.726v-.518h-.632Zm-1.836,5.858a4.54,4.54,0,0,0,1.122-1.628l.84.216a5.082,5.082,0,0,1-1.138,1.75l-.82-.337Zm7.9-2.684a.183.183,0,0,0,.141-.047.808.808,0,0,0,.067-.29c.02-.188.027-.585.027-1.1a1.605,1.605,0,0,0,.557.3,11.968,11.968,0,0,1-.075,1.271.787.787,0,0,1-.243.451.855.855,0,0,1-.451.114H348.5a.761.761,0,0,1-.526-.188c-.133-.141-.18-.31-.18-.961v-3.115h-.745a14.494,14.494,0,0,1-.149,1.526,8.274,8.274,0,0,1,.867.714l-.384.734a7.85,7.85,0,0,0-.667-.6,3.945,3.945,0,0,1-1.31,2.079,2.438,2.438,0,0,0-.443-.5c-1.4.149-2.833.29-3.88.4l-.067-.726c.479-.039,1.083-.086,1.742-.141v-.726h-1.44v-.639h1.44v-.612h.781v.612h1.385v.639h-1.385v.651c.526-.047,1.063-.094,1.6-.149l.008.357a3.618,3.618,0,0,0,.895-1.75c-.282-.2-.565-.4-.82-.557l.357-.639c.2.114.4.235.6.377.047-.33.075-.679.094-1.044h-.922v-.781h.942c.008-.4.02-.828.02-1.271h.793c0,.443-.008.867-.02,1.271h1.507v3.908a1.238,1.238,0,0,0,.027.4.1.1,0,0,0,.094.039h.149Zm-4.359,1.244a9.532,9.532,0,0,1,.216,1.593l-.875.1a9.682,9.682,0,0,0-.169-1.609Zm1.883-.078a7.7,7.7,0,0,1,.537,1.593l-.867.161a8.073,8.073,0,0,0-.49-1.609l.82-.141Zm1.918-.141a10.769,10.769,0,0,1,1.177,1.7l-.887.3a11.175,11.175,0,0,0-1.122-1.742l.828-.263Z" transform="translate(-278.862 -234.943)"/>
      <path id="パス_1877" data-name="パス 1877" class="cls-1" d="M372.931,244.829l-.557-.887a5.391,5.391,0,0,0,.84-.133,2.711,2.711,0,0,0,2.28-2.676,2.505,2.505,0,0,0-2.28-2.629,18.648,18.648,0,0,1-.565,2.644c-.565,1.922-1.346,2.986-2.279,2.986s-1.789-1.036-1.789-2.609a4.078,4.078,0,0,1,4.21-3.916,3.428,3.428,0,0,1,3.692,3.551c0,1.97-1.263,3.335-3.551,3.664ZM370.4,243.02c.424,0,.867-.612,1.3-2.064a15.114,15.114,0,0,0,.518-2.429,3.149,3.149,0,0,0-2.684,2.911C369.533,242.522,370,243.02,370.4,243.02Z" transform="translate(-295.676 -236.547)"/>
      <path id="パス_1878" data-name="パス 1878" class="cls-1" d="M401.1,239a7.031,7.031,0,0,1-1.479,2.3,8.23,8.23,0,0,0,3.664,1.432,4.188,4.188,0,0,0-.585.84,8.173,8.173,0,0,1-3.774-1.656,10.029,10.029,0,0,1-3.766,1.687,4.787,4.787,0,0,0-.557-.828,9.3,9.3,0,0,0,3.664-1.479,7.49,7.49,0,0,1-1.385-2.252l.84-.255a5.7,5.7,0,0,0,1.224,1.911,5.427,5.427,0,0,0,1.224-1.958l.934.263Zm-3.052-1.534a9.914,9.914,0,0,1-2.6,2.327,7.2,7.2,0,0,0-.726-.687,7.265,7.265,0,0,0,2.421-1.977Zm4.983-.53h-8.212v-.867h3.633V234.9h.9v1.169h3.672v.867Zm-2.381.133a14.2,14.2,0,0,1,2.5,2.032l-.773.6a13.964,13.964,0,0,0-2.44-2.111l.714-.526Z" transform="translate(-311.487 -234.9)"/>
      <path id="パス_1879" data-name="パス 1879" class="cls-1" d="M429.886,238.986v.773H424.35a6.723,6.723,0,0,1-2.225,3.813,5.3,5.3,0,0,0-.745-.612,5.316,5.316,0,0,0,2.024-3.2H421.6v-.773h3.68v-.7h-2.805v-.734h2.805v-.679H422v-.761h1.781a5.183,5.183,0,0,0-.537-.867l.753-.3a4.369,4.369,0,0,1,.706,1.122l-.1.047h2.2l-.027-.008a7.031,7.031,0,0,0,.612-1.2l.942.243a10.751,10.751,0,0,1-.639.961h1.844v.761h-3.362v.679h2.88v.734h-2.88v.7h3.712Zm-2.939,3.6h2.77v.773h-6.328v-.773h2.676v-1.44h-1.789v-.761h4.81v.761h-2.138Z" transform="translate(-327.76 -234.906)"/>
      <path id="パス_1880" data-name="パス 1880" class="cls-1" d="M448.36,243.185a5.443,5.443,0,0,0,1.232-1.856l.828.216a5.991,5.991,0,0,1-1.252,2.024Zm7.505-2.338h-6.348v-3.1h2.656v-2.8h.895v.922h3.457v.808h-3.457v1.063h2.8v3.1Zm-.895-2.287h-4.614v1.479h4.614Zm-3.025,2.986a10.879,10.879,0,0,1,.243,1.856l-.887.114a12.7,12.7,0,0,0-.2-1.891l.84-.075Zm1.875-.094a10.116,10.116,0,0,1,.714,1.817l-.855.216a9.707,9.707,0,0,0-.651-1.856l.793-.18Zm1.891-.188a11.012,11.012,0,0,1,1.232,1.922l-.84.337a10.651,10.651,0,0,0-1.177-1.97l.781-.29Z" transform="translate(-344.155 -234.93)"/>
    </g>
    <rect id="長方形_13" data-name="長方形 13" class="cls-1" width="9.444" height="0.589" transform="translate(0 4.045)"/>
    <rect id="長方形_14" data-name="長方形 14" class="cls-1" width="9.444" height="0.589" transform="translate(139.951 3.837)"/>
  </g>
  <g id="グループ_184" data-name="グループ 184">
    <path id="パス_1881" data-name="パス 1881" d="M29.818,0H0V7.062H11.378V38.449H18.44V7.062H29.818Z"/>
    <path id="パス_1882" data-name="パス 1882" d="M77.839,44.03v8.235H69.208V44.03H64.5V65.2h4.708V56.189h8.631V65.2h4.708V44.03Z" transform="translate(-39.194 -26.755)"/>
    <path id="パス_1883" data-name="パス 1883" d="M133.329,47.953V44.03H121.5V65.2h11.829V61.281h-7.121V56.224h7.121V52.3h-7.121V47.953Z" transform="translate(-73.831 -26.755)"/>
    <rect id="長方形_15" data-name="長方形 15" width="21.174" height="4.708" transform="translate(256 17.279) rotate(90)"/>
    <path id="パス_1884" data-name="パス 1884" d="M595.58,44.03v8.235h-8.631V44.03H582.24V65.2h4.708V56.189h8.631V65.2h4.708V44.03Z" transform="translate(-353.806 -26.755)"/>
    <path id="パス_1885" data-name="パス 1885" d="M437.257,44.03h-3.923V58.994q-5.885-7.48-11.77-14.964H417.64V65.2h3.923V50.225q5.885,7.492,11.77,14.979h3.923Z" transform="translate(-253.784 -26.755)"/>
    <path id="パス_1886" data-name="パス 1886" d="M193.456,1.11h-8.282q-4.1,6.538-8.2,13.073-4.1-6.538-8.2-13.073H160.5q6.474,10.328,12.947,20.653V39.124h7.062V21.763q6.474-10.328,12.947-20.653Z" transform="translate(-97.53 -0.675)"/>
    <path id="パス_1887" data-name="パス 1887" d="M245.381,65.2h4.582q-4.79-10.587-9.577-21.174h-2.5Q233.1,54.617,228.31,65.2h4.582l1.934-4.492h8.624l1.934,4.492Zm-9.208-7.631,2.962-6.878,2.962,6.878Z" transform="translate(-138.736 -26.755)"/>
    <path id="パス_1888" data-name="パス 1888" d="M372.681,65.2h4.583q-4.79-10.587-9.577-21.174h-2.5Q360.4,54.617,355.61,65.2h4.582l1.934-4.492h8.624l1.934,4.492Zm-9.208-7.631,2.962-6.878,2.962,6.878Z" transform="translate(-216.091 -26.755)"/>
    <path id="パス_1889" data-name="パス 1889" d="M492.5,65.2h4.582q-4.79-10.587-9.577-21.174h-2.5q-4.79,10.587-9.577,21.174h4.583l1.934-4.492h8.624L492.5,65.2Zm-9.208-7.631,2.962-6.878,2.962,6.878h-5.924Z" transform="translate(-288.901 -26.755)"/>
    <path id="パス_1890" data-name="パス 1890" d="M308.382,44.03h-2.888l-5.744,13.732L294.007,44.03H291.12L287,65.2h4.2q1.136-6.65,2.276-13.3,2.748,6.65,5.493,13.3h1.609q2.748-6.65,5.493-13.3,1.136,6.65,2.276,13.3H312.5Z" transform="translate(-174.399 -26.755)"/>
    <path id="パス_1891" data-name="パス 1891" d="M541.576,63.845A11.238,11.238,0,0,1,534,60.522l2.746-2.8a7.156,7.156,0,0,0,5.171,2.189,3.65,3.65,0,0,0,2.605-.942,2.829,2.829,0,0,0,.7-2.181A2.888,2.888,0,0,0,544,55.2a3.385,3.385,0,0,0-1.632-.628,8.986,8.986,0,0,1-3.319-1.236,7.015,7.015,0,0,1-3.139-3.272,6.773,6.773,0,0,1,1.675-7.309c2.837-2.562,7.749-2,10.954,1.255l-2.8,2.754c-1.872-1.9-4.414-2.1-5.524-1.1a2.839,2.839,0,0,0-.679,2.892,3.542,3.542,0,0,0,1.569,1.436,5.322,5.322,0,0,0,2.024.73,7.15,7.15,0,0,1,3.221,1.334,6.2,6.2,0,0,1,1.051,9.569,7.421,7.421,0,0,1-5.238,2.2c-.2.012-.4.02-.592.02Z" transform="translate(-324.492 -25.003)"/>
  </g>
  <g id="グループ_185" data-name="グループ 185" transform="translate(46.492 45.495)">
    <rect id="長方形_16" data-name="長方形 16" width="34.133" height="7.062" transform="translate(7.062 0) rotate(90)"/>
    <path id="パス_1892" data-name="パス 1892" d="M221.966,147.13H207.83v3.923h5.108v17.981h3.923V151.053h5.1Z" transform="translate(-172.783 -134.901)"/>
    <path id="パス_1893" data-name="パス 1893" d="M262.4,152.913V148.99H250.57v21.174H262.4v-3.923h-7.121v-5.057H262.4V157.26h-7.121v-4.347Z" transform="translate(-198.754 -136.031)"/>
    <path id="パス_1894" data-name="パス 1894" d="M427.209,152.913V148.99H415.38v21.174h11.829v-3.923h-7.121v-5.057h7.121V157.26h-7.121v-4.347Z" transform="translate(-298.903 -136.031)"/>
    <rect id="長方形_17" data-name="長方形 17" width="21.174" height="4.708" transform="translate(112.208 12.963) rotate(90)"/>
    <path id="パス_1895" data-name="パス 1895" d="M170.117,148.99h-3.923v14.964q-5.885-7.48-11.77-14.964H150.5v21.174h3.923V155.185q5.885,7.492,11.77,14.979h3.923Z" transform="translate(-137.945 -136.031)"/>
    <path id="パス_1896" data-name="パス 1896" d="M349.586,148.99,343.7,163.5l-5.885-14.513H333.5q4.514,10.587,9.024,21.174h2.354q4.514-10.587,9.024-21.174Z" transform="translate(-249.147 -136.031)"/>
    <path id="パス_1897" data-name="パス 1897" d="M478.12,148.96l-4.9,14.972-4.9-14.972h-2.687l-4.9,14.972-4.9-14.972H451.5l7.062,21.186H461.9l4.9-12.884,4.9,12.884h3.335L482.1,148.96Z" transform="translate(-320.852 -136.013)"/>
    <path id="パス_1898" data-name="パス 1898" d="M306.8,170.171q-3.048-4.2-6.1-8.4a6.358,6.358,0,0,0,.561-12.229,8.676,8.676,0,0,0-3.488-.537H291.49v21.174h3.923v-8.243c.365,0,.73-.008,1.1,0q2.784,4.125,5.567,8.247h4.708Zm-11.378-17.251h2.354a5.009,5.009,0,0,1,2,.247,2.985,2.985,0,0,1,1.919,2.46,2.913,2.913,0,0,1-2.315,2.425c-.051,0-.243,0-.451-.012-.184,0-.416-.012-.718-.02-.942-.024-1.871-.024-2.8-.016v-5.085Z" transform="translate(-223.62 -136.037)"/>
  </g>
</svg>
