<svg xmlns="http://www.w3.org/2000/svg" width="29" height="20.396" viewBox="0 0 29 20.396">
  <defs>
    <style>
      .cls-1 {
        fill: red;
      }
    </style>
  </defs>
  <path id="icon_youtube" class="cls-1" d="M28.711,8.4a6.245,6.245,0,0,0-1.155-2.877A4.152,4.152,0,0,0,24.65,4.295C20.594,4,14.506,4,14.506,4h-.011S8.405,4,4.35,4.295A4.152,4.152,0,0,0,1.444,5.524,6.212,6.212,0,0,0,.294,8.4,43.306,43.306,0,0,0,0,13.1v2.2a44.13,44.13,0,0,0,.289,4.7,6.28,6.28,0,0,0,1.15,2.877,4.944,4.944,0,0,0,3.2,1.24c2.322.221,9.861.289,9.861.289s6.095-.011,10.15-.3a4.152,4.152,0,0,0,2.906-1.229,6.245,6.245,0,0,0,1.155-2.877,43.991,43.991,0,0,0,.289-4.7V13.1a44.132,44.132,0,0,0-.289-4.7ZM11.5,17.962V9.811L19.337,13.9,11.5,17.962Z" transform="translate(0 -4)"/>
</svg>
