<svg xmlns="http://www.w3.org/2000/svg" width="1512.002" height="641.001" viewBox="0 0 1512.002 641.001">
  <defs>
    <style>
      .cls-1 {
        fill: #fecc34;
      }
    </style>
  </defs>
  <path id="前面オブジェクトで型抜き_1" data-name="前面オブジェクトで型抜き 1" class="cls-1" d="M10881,13718h-175.455a672.877,672.877,0,0,0,59.477-152.553c3.422-13.418,6.469-27.126,9.056-40.745,2.608-13.733,4.818-27.738,6.568-41.626,1.766-14.012,3.111-28.287,4-42.428.9-14.274,1.352-28.791,1.352-43.146s-.455-28.872-1.352-43.147c-.889-14.141-2.234-28.416-4-42.428-1.752-13.9-3.962-27.9-6.569-41.627-2.586-13.618-5.633-27.327-9.056-40.745a672.956,672.956,0,0,0-59.478-152.555H10881v641Zm-1369.548,0H9369v-641h142.455a672.9,672.9,0,0,0-59.479,152.555c-3.42,13.406-6.467,27.115-9.056,40.745-2.607,13.726-4.817,27.73-6.569,41.627-1.766,14.012-3.111,28.287-4,42.428-.9,14.279-1.352,28.8-1.352,43.147,0,14.368.455,28.885,1.352,43.146.889,14.141,2.234,28.416,4,42.428,1.751,13.889,3.961,27.894,6.568,41.626,2.587,13.618,5.634,27.326,9.056,40.745A672.941,672.941,0,0,0,9511.452,13718v0h0v0Z" transform="translate(-9368.999 -13076.999)"/>
</svg>
